<svg version="1.1" id="Layer_1" xmlns="http://www.w3.org/2000/svg" xmlns:xlink="http://www.w3.org/1999/xlink" x="0px" y="0px"
	 width="100%" viewBox="0 0 415 286" enable-background="new 0 0 415 286" xml:space="preserve">
<path fill="#21ADFF" opacity="1.000000" stroke="none" 
	d="
M183.999985,233.833405 
	C182.285233,234.222260 180.571823,234.942505 178.855545,234.949371 
	C159.029510,235.028671 139.203033,235.015930 119.376701,234.992935 
	C110.107826,234.982178 106.884163,230.487534 109.727303,221.655716 
	C110.962212,217.819672 112.189507,213.981140 113.415878,210.142334 
	C115.915649,202.317490 111.367317,189.619583 99.213921,186.467361 
	C90.246742,184.141556 79.211960,190.579315 76.371017,198.657516 
	C73.480293,206.877243 76.527893,213.722900 79.362289,220.168976 
	C83.467644,229.505478 79.581871,234.723587 69.215355,234.894638 
	C48.067699,235.243591 26.910252,234.999146 5.000634,234.999146 
	C5.000634,231.968002 4.958634,229.054214 5.007442,226.141937 
	C5.327350,207.053589 5.706124,187.966110 5.982066,168.877151 
	C6.104686,160.394577 10.331060,157.277588 18.398413,160.015686 
	C21.764809,161.158279 25.011585,162.672913 28.408630,163.701843 
	C37.789722,166.543259 47.318348,162.464783 51.843079,154.660507 
	C56.224751,147.102982 53.893181,134.701385 45.979801,129.518631 
	C41.054665,126.292969 35.650520,124.842430 29.764771,126.689987 
	C24.988844,128.189163 20.255510,129.836456 15.440248,131.194534 
	C10.125755,132.693420 6.056930,129.740570 6.035706,124.217430 
	C5.949286,101.727989 5.999729,79.238037 5.999729,56.000004 
	C7.877464,56.000004 9.623901,56.000004 11.370337,56.000000 
	C30.863472,55.999996 50.356606,56.003376 69.849739,55.998611 
	C80.025703,55.996124 82.635925,51.580544 79.195206,42.080418 
	C76.708443,35.214211 73.066757,28.264883 75.992584,20.426626 
	C78.519005,13.658357 83.285881,9.254527 90.116760,7.492370 
	C96.254280,5.909078 101.979561,7.140807 107.023491,11.440718 
	C116.011276,19.102741 115.579758,27.973013 111.305962,39.284988 
	C110.564148,41.248444 109.513680,43.141956 109.086433,45.169083 
	C107.647926,51.994282 111.119553,55.958416 118.595840,55.980236 
	C140.087982,56.042969 161.580414,56.014050 183.536346,56.551224 
	C183.999985,76.716560 184.147583,96.353264 183.956909,115.986671 
	C183.779922,134.209702 190.807648,132.643066 202.230942,127.997383 
	C207.303009,125.934654 212.327530,124.324226 218.115265,125.897469 
	C227.728409,128.510559 236.020691,139.230881 231.899521,151.779175 
	C228.869446,161.005295 218.947723,167.409821 208.630188,164.219955 
	C204.036041,162.799561 199.249741,161.805771 194.899963,159.843872 
	C190.445435,157.834702 187.751053,160.091812 185.749634,163.029648 
	C184.416214,164.986923 184.085022,167.929260 184.070404,170.435165 
	C183.946945,191.567322 184.000000,212.700516 183.999985,233.833405 
z"/>
<path fill="#FF0000" opacity="1.000000" stroke="none" 
	d="
M184.464020,233.902710 
	C184.000000,212.700516 183.946945,191.567322 184.070404,170.435165 
	C184.085022,167.929260 184.416214,164.986923 185.749634,163.029648 
	C187.751053,160.091812 190.445435,157.834702 194.899963,159.843872 
	C199.249741,161.805771 204.036041,162.799561 208.630188,164.219955 
	C218.947723,167.409821 228.869446,161.005295 231.899521,151.779175 
	C236.020691,139.230881 227.728409,128.510559 218.115265,125.897469 
	C212.327530,124.324226 207.303009,125.934654 202.230942,127.997383 
	C190.807648,132.643066 183.779922,134.209702 183.956909,115.986671 
	C184.147583,96.353264 183.999985,76.716560 183.999985,56.623955 
	C206.327225,56.111343 228.654648,55.987190 250.981613,56.043037 
	C257.628265,56.059662 261.054169,61.276928 258.973358,67.680244 
	C257.668396,71.696091 256.385590,75.722092 254.951309,79.692413 
	C251.154816,90.201691 257.754333,102.992264 272.344727,104.926895 
	C280.181213,105.965981 289.754120,98.484718 291.949707,89.976479 
	C293.596191,83.596169 291.211182,77.913422 289.076752,72.131287 
	C288.129730,69.565765 287.278687,66.845871 287.087738,64.146294 
	C286.747803,59.338844 289.905121,56.054676 294.812866,56.037075 
	C317.296692,55.956425 339.780945,56.001606 363.000000,56.001606 
	C363.000000,57.971748 363.000000,59.724503 363.000000,61.477261 
	C363.000000,81.641624 362.995453,101.805984 363.002197,121.970345 
	C363.004974,130.174271 366.618805,132.482468 374.788391,130.155548 
	C380.853607,128.428009 387.049103,126.918076 393.290009,126.103546 
	C402.720734,124.872704 410.138977,134.745453 411.045288,142.866989 
	C412.661591,157.350891 399.018799,168.864853 384.148895,163.604980 
	C380.776550,162.412094 377.444092,161.102661 374.052460,159.968948 
	C367.420105,157.751953 363.006805,160.844742 363.003540,167.667435 
	C362.993744,188.165085 363.000000,208.662750 363.000000,229.160400 
	C363.000000,230.947830 363.000000,232.735245 363.000000,234.999954 
	C361.074219,234.999954 359.621033,234.999954 358.167877,234.999954 
	C339.336700,234.999969 320.505463,235.022400 301.674438,234.968246 
	C299.596008,234.962280 297.487946,234.163132 295.446625,234.340897 
	C287.932526,234.995270 285.091278,240.411514 287.852753,247.698135 
	C289.572388,252.235748 290.757996,256.986267 292.014496,261.686310 
	C293.707977,268.020813 289.403503,277.168152 282.051117,281.007599 
	C275.530151,284.412842 266.440643,283.212402 260.883850,278.448456 
	C252.880417,271.586945 252.931610,262.837280 255.926743,254.329514 
	C257.168304,250.802826 258.584808,247.325363 259.598694,243.734299 
	C260.653503,239.998276 259.087708,237.133118 255.417389,236.078598 
	C251.847458,235.052948 248.099182,234.127045 244.419846,234.090027 
	C224.590851,233.890503 204.758942,233.981354 184.464020,233.902710 
z"/>
</svg>